Coordinates
version=1
nRows=6
nColumns=34
inDegrees=yes

Units are S.I. units (second, meters, Newtons, ...)
If the header above contains a line with 'inDegrees', this indicates whether rotational values are in degrees (yes) or radians (no).

endheader
time	pelvis_tilt	pelvis_list	pelvis_rotation	pelvis_tx	pelvis_ty	pelvis_tz	hip_flexion_r	hip_adduction_r	hip_rotation_r	knee_angle_r	ankle_angle_r	subtalar_angle_r	mtp_angle_r	hip_flexion_l	hip_adduction_l	hip_rotation_l	knee_angle_l	ankle_angle_l	subtalar_angle_l	mtp_angle_l	lumbar_extension	lumbar_bending	lumbar_rotation	arm_flex_r	arm_add_r	arm_rot_r	elbow_flex_r	pro_sup_r	arm_flex_l	arm_add_l	arm_rot_l	elbow_flex_l	pro_sup_l
      0.00000000	     -1.89057444	      8.45924237	    -60.16342385	     -0.01135561	      0.92432155	     -0.15799489	     35.19314431	    -13.68326813	      3.77669951	     50.40677297	     14.32244993	     -4.88092625	      0.00000000	     30.42963969	     -3.41334800	     -9.84733608	     43.01629348	     23.12333949	     -9.67395129	      0.00000000	    -20.27560490	     -1.37891685	      2.88086072	     32.42000573	     -6.71088767	     26.70685391	     49.93725689	    113.79655589	     31.08941671	     -4.44043221	     32.04657377	     48.56630322	    111.15939771
      0.01666670	     -1.87189741	      8.42255982	    -60.12439178	     -0.01121557	      0.92407438	     -0.15888469	     35.32086850	    -13.74622006	      3.84912219	     50.67236183	     14.22130828	     -5.00765658	      0.00000000	     30.58210750	     -3.40126030	     -9.82530512	     43.30172357	     23.21380160	     -9.63661633	      0.00000000	    -20.52343552	     -1.31610634	      2.83342011	     32.62134484	     -6.76738685	     26.76373302	     50.06880414	    113.80755319	     31.26694394	     -4.31200539	     32.03442810	     48.62547589	    111.15945253
      0.03333330	     -1.93259848	      8.25001176	    -59.92808557	     -0.01202738	      0.92259929	     -0.15955557	     35.55823837	    -13.43400033	      4.24820611	     51.51378938	     14.71820076	     -5.27437776	      0.00000000	     31.05783632	     -3.48253561	     -9.33502445	     44.26216289	     23.54920739	     -9.74976931	      0.00000000	    -20.93196754	     -1.13618887	      2.67577646	     32.87065336	     -7.18085222	     27.19793901	     51.14920373	    113.89359206	     31.38508688	     -4.51569927	     31.87345993	     49.30988753	    111.17463447
      0.05000000	     -2.65330150	      8.04560048	    -59.35002248	     -0.01281445	      0.91990250	     -0.16144944	     36.28872244	    -13.08268554	      3.48165019	     52.87836806	     15.23919489	     -4.83601953	      0.00000000	     32.41126208	     -4.04272891	     -8.35676082	     45.97730444	     23.67322787	    -10.09116038	      0.00000000	    -21.12364234	     -0.19297166	      2.29139700	     33.44185265	     -7.58182821	     27.98195476	     52.04993400	    114.20085972	     31.55667756	     -4.65880370	     31.58020879	     50.26629595	    111.36301895
      0.06666670	     -2.69752959	      7.72825062	    -59.28087795	     -0.01437861	      0.91767124	     -0.16273825	     36.82029911	    -12.86530267	      3.47291081	     54.47438907	     16.35577868	     -4.69736552	      0.00000000	     33.02773305	     -4.33839423	     -8.09269383	     47.39286083	     23.79477395	    -10.39395390	      0.00000000	    -21.89611221	     -0.03663048	      2.11748665	     33.99918526	     -7.84531271	     28.25833481	     53.43438374	    114.35472984	     32.00610439	     -5.07698113	     31.56069933	     51.42437566	    111.46465217
      0.08333330	     -3.30138340	      7.82843672	    -58.76582444	     -0.01517466	      0.91356870	     -0.16486069	     37.98333832	    -12.89434399	      2.73535723	     56.14722341	     17.44507585	     -3.41501150	      0.00000000	     34.74238273	     -4.77242822	     -7.52587534	     49.37626644	     24.15654907	    -10.38243153	      0.00000000	    -21.83657001	      0.58667384	      1.67484805	     34.52521841	     -8.49083994	     29.08625346	     54.93528291	    114.99753971	     32.15923285	     -5.41863214	     31.29594006	     52.92718581	    111.84659571
